<svg xmlns="http://www.w3.org/2000/svg" xmlns:xlink="http://www.w3.org/1999/xlink" width="500" zoomAndPan="magnify" viewBox="0 0 375 374.999991" height="500" preserveAspectRatio="xMidYMid meet" version="1.0"><defs><filter x="0%" y="0%" width="100%" height="100%" id="f0e1354def"><feColorMatrix values="0 0 0 0 1 0 0 0 0 1 0 0 0 0 1 0 0 0 1 0" color-interpolation-filters="sRGB"/></filter><g/><clipPath id="6257d906ab"><path d="M 5.738281 5.738281 L 366.488281 5.738281 L 366.488281 366.488281 L 5.738281 366.488281 Z M 5.738281 5.738281 " clip-rule="nonzero"/></clipPath><mask id="5455da5d0a"><g filter="url(#f0e1354def)"><rect x="-37.5" width="450" fill="#000000" y="-37.499999" height="449.999989" fill-opacity="0.05"/></g></mask><clipPath id="921475488d"><path d="M 0.121094 0.121094 L 354 0.121094 L 354 354 L 0.121094 354 Z M 0.121094 0.121094 " clip-rule="nonzero"/></clipPath><clipPath id="c438f6438d"><rect x="0" width="355" y="0" height="355"/></clipPath><clipPath id="6810dd11ef"><path d="M 145.765625 145.734375 L 226.765625 145.734375 L 226.765625 212.484375 L 145.765625 212.484375 Z M 145.765625 145.734375 " clip-rule="nonzero"/></clipPath><clipPath id="640b091687"><path d="M 164.578125 165.933594 L 207.710938 165.933594 L 207.710938 209.066406 L 164.578125 209.066406 Z M 164.578125 165.933594 " clip-rule="nonzero"/></clipPath><clipPath id="5f7e42bc90"><path d="M 186.144531 165.933594 C 174.234375 165.933594 164.578125 175.589844 164.578125 187.5 C 164.578125 199.410156 174.234375 209.066406 186.144531 209.066406 C 198.054688 209.066406 207.710938 199.410156 207.710938 187.5 C 207.710938 175.589844 198.054688 165.933594 186.144531 165.933594 Z M 186.144531 165.933594 " clip-rule="nonzero"/></clipPath></defs><g clip-path="url(#6257d906ab)"><path fill="#0d0d0d" d="M 186.140625 5.738281 C 86.507812 5.738281 5.738281 86.507812 5.738281 186.140625 C 5.738281 285.777344 86.507812 366.546875 186.140625 366.546875 C 285.777344 366.546875 366.546875 285.777344 366.546875 186.140625 C 366.546875 86.507812 285.777344 5.738281 186.140625 5.738281 Z M 186.140625 193.625 C 182.007812 193.625 178.65625 190.277344 178.65625 186.140625 C 178.65625 182.007812 182.007812 178.65625 186.140625 178.65625 C 190.273438 178.65625 193.625 182.007812 193.625 186.140625 C 193.625 190.277344 190.273438 193.625 186.140625 193.625 Z M 186.140625 193.625 " fill-opacity="1" fill-rule="nonzero"/></g><g mask="url(#5455da5d0a)"><g transform="matrix(1, 0, 0, 1, 9, 9)"><g clip-path="url(#c438f6438d)"><g clip-path="url(#921475488d)"><path fill="#ffffff" d="M 177.140625 0.691406 C 79.691406 0.691406 0.695312 79.691406 0.695312 177.140625 C 0.695312 274.589844 79.691406 353.589844 177.140625 353.589844 C 274.589844 353.589844 353.589844 274.589844 353.589844 177.140625 C 353.589844 79.691406 274.589844 0.691406 177.140625 0.691406 Z M 177.140625 184.625 C 173.007812 184.625 169.65625 181.277344 169.65625 177.140625 C 169.65625 173.007812 173.007812 169.65625 177.140625 169.65625 C 181.273438 169.65625 184.625 173.007812 184.625 177.140625 C 184.625 181.277344 181.273438 184.625 177.140625 184.625 Z M 177.140625 184.625 " fill-opacity="1" fill-rule="nonzero"/></g></g></g></g><path fill="#0d0d0d" d="M 186.140625 95.007812 C 135.808594 95.007812 95.007812 135.808594 95.007812 186.140625 C 95.007812 236.472656 135.808594 277.273438 186.140625 277.273438 C 236.472656 277.273438 277.273438 236.472656 277.273438 186.140625 C 277.273438 135.8125 236.472656 95.007812 186.140625 95.007812 Z M 186.140625 193.625 C 182.007812 193.625 178.65625 190.277344 178.65625 186.140625 C 178.65625 182.007812 182.007812 178.65625 186.140625 178.65625 C 190.273438 178.65625 193.625 182.007812 193.625 186.140625 C 193.625 190.277344 190.273438 193.625 186.140625 193.625 Z M 186.140625 193.625 " fill-opacity="1" fill-rule="nonzero"/><path fill="#e05338" d="M 186.140625 130.730469 C 155.539062 130.730469 130.726562 155.539062 130.726562 186.140625 C 130.726562 216.746094 155.539062 241.554688 186.140625 241.554688 C 216.746094 241.554688 241.554688 216.746094 241.554688 186.140625 C 241.554688 155.539062 216.746094 130.730469 186.140625 130.730469 Z M 186.140625 193.625 C 182.007812 193.625 178.65625 190.277344 178.65625 186.140625 C 178.65625 182.007812 182.007812 178.65625 186.140625 178.65625 C 190.273438 178.65625 193.625 182.007812 193.625 186.140625 C 193.625 190.277344 190.273438 193.625 186.140625 193.625 Z M 186.140625 193.625 " fill-opacity="1" fill-rule="nonzero"/><path fill="#ffffff" d="M 186.140625 234.320312 C 159.574219 234.320312 137.960938 212.707031 137.960938 186.140625 C 137.960938 159.574219 159.574219 137.960938 186.140625 137.960938 C 212.707031 137.960938 234.320312 159.574219 234.320312 186.140625 C 234.320312 212.707031 212.707031 234.320312 186.140625 234.320312 Z M 186.140625 139.320312 C 160.324219 139.320312 139.320312 160.324219 139.320312 186.140625 C 139.320312 211.960938 160.324219 232.964844 186.140625 232.964844 C 211.957031 232.964844 232.964844 211.960938 232.964844 186.140625 C 232.964844 160.324219 211.957031 139.320312 186.140625 139.320312 Z M 186.140625 139.320312 " fill-opacity="1" fill-rule="nonzero"/><path fill="#0d0d0d" d="M 186.140625 335.175781 C 146.332031 335.175781 108.90625 319.671875 80.757812 291.523438 C 52.609375 263.375 37.109375 225.949219 37.109375 186.140625 C 37.109375 146.332031 52.609375 108.90625 80.757812 80.757812 C 108.90625 52.609375 146.332031 37.109375 186.140625 37.109375 C 225.949219 37.109375 263.375 52.609375 291.523438 80.757812 C 319.671875 108.90625 335.171875 146.332031 335.171875 186.140625 C 335.171875 225.949219 319.671875 263.375 291.523438 291.523438 C 263.375 319.671875 225.949219 335.175781 186.140625 335.175781 Z M 186.140625 40.402344 C 147.210938 40.402344 110.613281 55.5625 83.085938 83.085938 C 55.5625 110.613281 40.402344 147.210938 40.402344 186.140625 C 40.402344 225.070312 55.5625 261.667969 83.085938 289.195312 C 110.613281 316.722656 147.214844 331.882812 186.140625 331.882812 C 225.070312 331.882812 261.667969 316.722656 289.195312 289.195312 C 316.71875 261.667969 331.878906 225.070312 331.878906 186.140625 C 331.878906 147.210938 316.71875 110.613281 289.195312 83.085938 C 261.667969 55.5625 225.070312 40.402344 186.140625 40.402344 Z M 186.140625 40.402344 " fill-opacity="1" fill-rule="nonzero"/><path fill="#0d0d0d" d="M 186.140625 344.941406 C 143.726562 344.941406 103.847656 328.421875 73.851562 298.429688 C 43.859375 268.4375 27.339844 228.558594 27.339844 186.140625 C 27.339844 143.726562 43.859375 103.847656 73.851562 73.851562 C 103.847656 43.859375 143.726562 27.339844 186.140625 27.339844 C 228.558594 27.339844 268.4375 43.859375 298.429688 73.851562 C 328.421875 103.847656 344.941406 143.722656 344.941406 186.140625 C 344.941406 228.558594 328.421875 268.4375 298.429688 298.429688 C 268.4375 328.421875 228.558594 344.941406 186.140625 344.941406 Z M 186.140625 30.636719 C 144.605469 30.636719 105.554688 46.8125 76.179688 76.183594 C 46.8125 105.554688 30.636719 144.605469 30.636719 186.140625 C 30.636719 227.679688 46.808594 266.730469 76.179688 296.101562 C 105.554688 325.472656 144.605469 341.648438 186.140625 341.648438 C 227.679688 341.648438 266.730469 325.472656 296.101562 296.101562 C 325.472656 266.730469 341.648438 227.679688 341.648438 186.140625 C 341.648438 144.605469 325.472656 105.554688 296.101562 76.183594 C 266.730469 46.8125 227.679688 30.636719 186.140625 30.636719 Z M 186.140625 30.636719 " fill-opacity="1" fill-rule="nonzero"/><path fill="#0d0d0d" d="M 186.140625 301.691406 C 122.429688 301.691406 70.59375 249.855469 70.59375 186.140625 C 70.59375 122.429688 122.429688 70.59375 186.140625 70.59375 C 249.855469 70.59375 301.6875 122.429688 301.6875 186.140625 C 301.6875 249.855469 249.855469 301.691406 186.140625 301.691406 Z M 186.140625 74.664062 C 124.671875 74.664062 74.664062 124.671875 74.664062 186.140625 C 74.664062 247.609375 124.671875 297.621094 186.140625 297.621094 C 247.609375 297.621094 297.617188 247.609375 297.617188 186.140625 C 297.617188 124.671875 247.609375 74.664062 186.140625 74.664062 Z M 186.140625 74.664062 " fill-opacity="1" fill-rule="nonzero"/><path fill="#0d0d0d" d="M 186.140625 287.898438 C 130.03125 287.898438 84.382812 242.25 84.382812 186.140625 C 84.382812 130.03125 130.03125 84.382812 186.140625 84.382812 C 242.25 84.382812 287.898438 130.03125 287.898438 186.140625 C 287.898438 242.25 242.25 287.898438 186.140625 287.898438 Z M 186.140625 91.167969 C 133.773438 91.167969 91.167969 133.773438 91.167969 186.140625 C 91.167969 238.511719 133.773438 281.117188 186.140625 281.117188 C 238.511719 281.117188 281.117188 238.511719 281.117188 186.140625 C 281.117188 133.773438 238.511719 91.167969 186.140625 91.167969 Z M 186.140625 91.167969 " fill-opacity="1" fill-rule="nonzero"/><path fill="#0d0d0d" d="M 186.140625 315.246094 C 114.953125 315.246094 57.035156 257.328125 57.035156 186.140625 C 57.035156 114.953125 114.953125 57.039062 186.140625 57.039062 C 257.328125 57.039062 315.242188 114.953125 315.242188 186.140625 C 315.242188 257.328125 257.328125 315.246094 186.140625 315.246094 Z M 186.140625 60.113281 C 116.648438 60.113281 60.113281 116.648438 60.113281 186.140625 C 60.113281 255.632812 116.648438 312.171875 186.140625 312.171875 C 255.632812 312.171875 312.167969 255.632812 312.167969 186.140625 C 312.167969 116.648438 255.632812 60.113281 186.140625 60.113281 Z M 186.140625 60.113281 " fill-opacity="1" fill-rule="nonzero"/><g clip-path="url(#6810dd11ef)"><path fill="#000000" d="M 222.800781 182.03125 C 222.59375 161.933594 206.222656 145.734375 186.058594 145.734375 C 165.898438 145.734375 149.523438 162.035156 149.320312 182.132812 C 147.375 183.671875 145.941406 185.617188 145.941406 188.078125 L 145.941406 200.074219 C 145.941406 204.484375 150.546875 207.152344 154.128906 208.6875 L 154.128906 209.816406 C 154.128906 211.253906 155.765625 212.484375 157.710938 212.484375 L 158.734375 212.484375 C 160.679688 212.484375 162.316406 211.355469 162.316406 209.816406 L 162.316406 178.75 C 162.316406 177.3125 160.679688 176.082031 158.734375 176.082031 L 157.710938 176.082031 C 157.097656 176.082031 156.484375 176.183594 155.972656 176.492188 C 158.835938 162.34375 171.324219 151.679688 186.265625 151.679688 C 201.207031 151.679688 213.691406 162.34375 216.558594 176.492188 C 216.046875 176.289062 215.433594 176.082031 214.816406 176.082031 L 213.792969 176.082031 C 211.851562 176.082031 210.210938 177.210938 210.210938 178.75 L 210.210938 209.816406 C 210.210938 211.253906 211.851562 212.484375 213.792969 212.484375 L 214.816406 212.484375 C 216.761719 212.484375 218.398438 211.355469 218.398438 209.816406 L 218.398438 208.585938 C 221.980469 207.046875 226.585938 204.382812 226.585938 199.972656 L 226.585938 187.976562 C 226.28125 185.515625 224.746094 183.566406 222.800781 182.03125 Z M 222.800781 182.03125 " fill-opacity="1" fill-rule="nonzero"/></g><g clip-path="url(#640b091687)"><g clip-path="url(#5f7e42bc90)"><path fill="#e05238" d="M 164.578125 165.933594 L 207.710938 165.933594 L 207.710938 209.066406 L 164.578125 209.066406 Z M 164.578125 165.933594 " fill-opacity="1" fill-rule="nonzero"/></g></g><g fill="#000000" fill-opacity="1"><g transform="translate(164.581443, 204.370811)"><g><path d="M 10.609375 -36.046875 C 8.71875 -32.984375 4.875 -29.328125 1.546875 -27.078125 C 2.109375 -26.484375 2.890625 -25.40625 3.328125 -24.75 C 6.9375 -27.34375 11 -31.3125 13.546875 -34.9375 Z M 11.640625 -27.5625 C 9.09375 -23.03125 4.953125 -18.546875 1.03125 -15.609375 C 1.59375 -14.96875 2.546875 -13.375 2.84375 -12.765625 C 4.484375 -14.0625 6.125 -15.609375 7.71875 -17.375 L 7.71875 3.453125 L 10.734375 3.453125 L 10.734375 -20.921875 C 12.125 -22.734375 13.453125 -24.625 14.484375 -26.484375 Z M 18.5 -9.609375 C 17.34375 -6.421875 15.359375 -3.0625 13.234375 -0.78125 C 13.921875 -0.46875 15.265625 0.34375 15.875 0.8125 C 17.890625 -1.59375 20.09375 -5.34375 21.46875 -8.84375 Z M 40.109375 -11.8125 L 40.109375 -14.703125 L 28.84375 -14.703125 L 28.84375 -20.09375 L 35.84375 -20.09375 L 35.84375 -22.515625 C 36.921875 -21.6875 38.03125 -21 39.109375 -20.265625 C 39.59375 -21.171875 40.53125 -22.203125 41.234375 -22.859375 C 36.875 -25.265625 32.515625 -28.421875 28.5 -33.546875 C 28.84375 -34.0625 29.15625 -34.59375 29.453125 -35.140625 L 26.828125 -36.21875 C 23.9375 -30.703125 18.546875 -25.53125 13.109375 -22.59375 C 13.890625 -21.953125 14.703125 -21 15.1875 -20.265625 C 19.578125 -22.90625 23.8125 -26.734375 27 -31.171875 C 29.71875 -27.6875 32.46875 -25.0625 35.28125 -22.9375 L 19.140625 -22.9375 L 19.140625 -20.09375 L 25.703125 -20.09375 L 25.703125 -14.703125 L 14.53125 -14.703125 L 14.53125 -11.8125 L 25.703125 -11.8125 L 25.703125 -0.390625 C 25.703125 0.125 25.53125 0.34375 24.890625 0.390625 C 24.28125 0.390625 22.296875 0.390625 19.96875 0.296875 C 20.390625 1.203125 20.875 2.453125 21 3.328125 C 24.0625 3.328125 26.046875 3.28125 27.25 2.765625 C 28.46875 2.25 28.84375 1.375 28.84375 -0.390625 L 28.84375 -11.8125 Z M 32.515625 -8.5 C 34.765625 -5.734375 37.21875 -1.9375 38.25 0.5625 L 40.96875 -0.90625 C 39.796875 -3.359375 37.34375 -7.03125 34.96875 -9.75 Z M 32.515625 -8.5 "/></g></g></g></svg>